<svg width="102" height="66" viewBox="0 0 102 66" fill="none" xmlns="http://www.w3.org/2000/svg">
<path d="M100.5 17.4167C99.5833 10.5417 98.6666 5.49999 95.9166 3.66666C93.1666 1.37499 69.3333 0.916656 51 0.916656C32.6666 0.916656 8.83331 1.37499 6.08331 3.66666C3.33331 5.49999 2.41665 10.5417 1.49998 17.4167C0.583313 24.2917 0.583313 28.4167 0.583313 33C0.583313 37.5833 0.583313 41.7083 1.49998 48.5833C2.41665 55.4583 3.33331 60.5 6.08331 62.3333C8.83331 64.625 32.6666 65.0833 51 65.0833C69.3333 65.0833 93.1666 64.625 95.9166 62.3333C98.6666 60.5 99.5833 55.4583 100.5 48.5833C101.417 41.7083 101.417 37.5833 101.417 33C101.417 28.4167 101.417 24.2917 100.5 17.4167ZM41.8333 49.5V16.5L69.3333 33L41.8333 49.5Z" fill="#FF0000"/>
</svg>
