<svg xmlns="http://www.w3.org/2000/svg" width="39" height="41" viewBox="0 0 39 41"><defs><linearGradient id="db4va" x1="19.82" x2="-18.94" y1="-19.64" y2="19.64" gradientUnits="userSpaceOnUse"><stop offset="0" stop-color="#fff"/><stop offset="1" stop-color="#fff"/></linearGradient></defs><g><g><path fill="url(#db4va)" d="M19.382 25.66c-2.958 0-5.366-2.494-5.366-5.565 0-3.07 2.408-5.564 5.366-5.564 2.956 0 5.361 2.494 5.361 5.564s-2.405 5.565-5.36 5.565zm0-9.687c-2.193 0-3.975 1.85-3.975 4.122 0 2.271 1.782 4.123 3.975 4.123 2.188 0 3.97-1.852 3.97-4.123 0-2.272-1.782-4.121-3.97-4.121zm-2.337 24.219a.703.703 0 0 1-.674-.546l-1.196-4.962a14.752 14.752 0 0 1-2.74-1.206l-4.255 2.65a.68.68 0 0 1-.848-.106L4.026 32.59a.74.74 0 0 1-.104-.879l2.555-4.407a15.438 15.438 0 0 1-1.139-2.838L.528 23.22A.72.72 0 0 1 0 22.522v-4.844c0-.333.22-.622.527-.7l4.784-1.238c.292-.977.684-1.93 1.163-2.845L3.92 8.48a.744.744 0 0 1 .103-.881l3.302-3.423a.67.67 0 0 1 .85-.108l4.256 2.646a14.455 14.455 0 0 1 2.733-1.177l1.202-4.99A.702.702 0 0 1 17.04 0h4.672a.7.7 0 0 1 .674.547l1.196 4.966c.94.303 1.858.708 2.736 1.198l4.26-2.652a.693.693 0 0 1 .849.111l3.301 3.423a.74.74 0 0 1 .106.883l-2.554 4.42c.47.905.85 1.854 1.133 2.825l4.816 1.252c.31.078.528.369.528.7v4.84c0 .329-.217.62-.528.697l-4.816 1.251c-.282.98-.664 1.93-1.13 2.83l2.556 4.416a.74.74 0 0 1-.105.882l-3.302 3.43a.688.688 0 0 1-.848.11l-4.26-2.653a14.98 14.98 0 0 1-2.74 1.204l-1.19 4.963a.702.702 0 0 1-.677.545zm-4.622-8.267c.119 0 .24.031.349.096 1.02.61 2.087 1.078 3.17 1.39.24.07.424.272.487.523l1.161 4.815 3.584-.003 1.159-4.817a.71.71 0 0 1 .484-.518 13.537 13.537 0 0 0 3.17-1.392.67.67 0 0 1 .705.004l4.14 2.58 2.536-2.635-2.486-4.29a.751.751 0 0 1-.008-.733 13.908 13.908 0 0 0 1.31-3.27.705.705 0 0 1 .502-.51l4.68-1.217v-3.713l-4.68-1.216a.702.702 0 0 1-.502-.51 14.158 14.158 0 0 0-1.31-3.273.75.75 0 0 1 .008-.73l2.48-4.29L30.83 5.59l-4.14 2.575a.661.661 0 0 1-.704.006 13.68 13.68 0 0 0-3.17-1.391.703.703 0 0 1-.485-.518l-1.16-4.819h-3.585L16.416 6.29a.708.708 0 0 1-.492.52 13.19 13.19 0 0 0-3.16 1.362.658.658 0 0 1-.704-.008L7.926 5.591 5.39 8.222l2.482 4.284a.743.743 0 0 1 .005.733 14.742 14.742 0 0 0-1.343 3.293.708.708 0 0 1-.503.506L1.391 18.24v3.715l4.674 1.215a.706.706 0 0 1 .503.51 14.05 14.05 0 0 0 1.315 3.276.742.742 0 0 1-.008.731l-2.481 4.285 2.537 2.632 4.134-2.576a.675.675 0 0 1 .359-.104z"/><path fill="#ff3b4a" d="M19.382 25.66c-2.958 0-5.366-2.494-5.366-5.565 0-3.07 2.408-5.564 5.366-5.564 2.956 0 5.361 2.494 5.361 5.564s-2.405 5.565-5.36 5.565zm0-9.687c-2.193 0-3.975 1.85-3.975 4.122 0 2.271 1.782 4.123 3.975 4.123 2.188 0 3.97-1.852 3.97-4.123 0-2.272-1.782-4.121-3.97-4.121zm-2.337 24.219a.703.703 0 0 1-.674-.546l-1.196-4.962a14.752 14.752 0 0 1-2.74-1.206l-4.255 2.65a.68.68 0 0 1-.848-.106L4.026 32.59a.74.74 0 0 1-.104-.879l2.555-4.407a15.438 15.438 0 0 1-1.139-2.838L.528 23.22A.72.72 0 0 1 0 22.522v-4.844c0-.333.22-.622.527-.7l4.784-1.238c.292-.977.684-1.93 1.163-2.845L3.92 8.48a.744.744 0 0 1 .103-.881l3.302-3.423a.67.67 0 0 1 .85-.108l4.256 2.646a14.455 14.455 0 0 1 2.733-1.177l1.202-4.99A.702.702 0 0 1 17.04 0h4.672a.7.7 0 0 1 .674.547l1.196 4.966c.94.303 1.858.708 2.736 1.198l4.26-2.652a.693.693 0 0 1 .849.111l3.301 3.423a.74.74 0 0 1 .106.883l-2.554 4.42c.47.905.85 1.854 1.133 2.825l4.816 1.252c.31.078.528.369.528.7v4.84c0 .329-.217.62-.528.697l-4.816 1.251c-.282.98-.664 1.93-1.13 2.83l2.556 4.416a.74.74 0 0 1-.105.882l-3.302 3.43a.688.688 0 0 1-.848.11l-4.26-2.653a14.98 14.98 0 0 1-2.74 1.204l-1.19 4.963a.702.702 0 0 1-.677.545zm-4.622-8.267c.119 0 .24.031.349.096 1.02.61 2.087 1.078 3.17 1.39.24.07.424.272.487.523l1.161 4.815 3.584-.003 1.159-4.817a.71.71 0 0 1 .484-.518 13.537 13.537 0 0 0 3.17-1.392.67.67 0 0 1 .705.004l4.14 2.58 2.536-2.635-2.486-4.29a.751.751 0 0 1-.008-.733 13.908 13.908 0 0 0 1.31-3.27.705.705 0 0 1 .502-.51l4.68-1.217v-3.713l-4.68-1.216a.702.702 0 0 1-.502-.51 14.158 14.158 0 0 0-1.31-3.273.75.75 0 0 1 .008-.73l2.48-4.29L30.83 5.59l-4.14 2.575a.661.661 0 0 1-.704.006 13.68 13.68 0 0 0-3.17-1.391.703.703 0 0 1-.485-.518l-1.16-4.819h-3.585L16.416 6.29a.708.708 0 0 1-.492.52 13.19 13.19 0 0 0-3.16 1.362.658.658 0 0 1-.704-.008L7.926 5.591 5.39 8.222l2.482 4.284a.743.743 0 0 1 .005.733 14.742 14.742 0 0 0-1.343 3.293.708.708 0 0 1-.503.506L1.391 18.24v3.715l4.674 1.215a.706.706 0 0 1 .503.51 14.05 14.05 0 0 0 1.315 3.276.742.742 0 0 1-.008.731l-2.481 4.285 2.537 2.632 4.134-2.576a.675.675 0 0 1 .359-.104z"/></g></g></svg>