<svg xmlns="http://www.w3.org/2000/svg" width="36" height="37" viewBox="0 0 36 37"><defs><linearGradient id="iplga" x1="16.9" x2="-16.9" y1="-17.62" y2="19.38" gradientUnits="userSpaceOnUse"><stop offset="0" stop-color="#fff"/><stop offset="1" stop-color="#fff"/></linearGradient></defs><g><g><path fill="url(#iplga)" d="M35.248 13.818L19.44 29.781l-1.866 1.885a.742.742 0 0 1-.312.19L5.825 35.445.963 36.968a.633.633 0 0 1-.208.033.718.718 0 0 1-.556-.269.903.903 0 0 1-.148-.863l1.814-5.216 4.251-12.21.025-.073a.854.854 0 0 1 .236-.345l1.825-1.843L24.012.22a.699.699 0 0 1 .836-.138 21.22 21.22 0 0 1 6.43 5.27c1.818 2.201 3.219 4.744 4.167 7.558a.898.898 0 0 1-.197.908zM2.002 34.908l2.601-.818c-.013-.037-.021-.08-.04-.113a4.7 4.7 0 0 0-.62-1.03 4.178 4.178 0 0 0-.874-.778c-.03-.018-.066-.03-.097-.053zm15.86-5.797l-8.24-9.975-.957-1.156-1.184 1.189L3.53 30.52c.063.037.101.1.164.14.507.324.979.694 1.365 1.16.384.467.677 1.019.921 1.606.033.07.085.125.115.197l10.589-3.321zm15.985-16.14c-.877-2.406-2.11-4.588-3.684-6.49a19.636 19.636 0 0 0-5.515-4.645L9.781 16.849l2.387 2.893L24.733 7.056a.712.712 0 0 1 1.07.052c.13.16.197.363.197.56 0 .23-.083.454-.247.623L13.19 20.973l1.883 2.285.49.597L28.133 11.17a.706.706 0 0 1 1.066.053c.135.16.197.362.197.559a.89.89 0 0 1-.243.622L16.584 25.088l2.393 2.896z"/><path fill="#ff3b4a" d="M35.248 13.818L19.44 29.781l-1.866 1.885a.742.742 0 0 1-.312.19L5.825 35.445.963 36.968a.633.633 0 0 1-.208.033.718.718 0 0 1-.556-.269.903.903 0 0 1-.148-.863l1.814-5.216 4.251-12.21.025-.073a.854.854 0 0 1 .236-.345l1.825-1.843L24.012.22a.699.699 0 0 1 .836-.138 21.22 21.22 0 0 1 6.43 5.27c1.818 2.201 3.219 4.744 4.167 7.558a.898.898 0 0 1-.197.908zM2.002 34.908l2.601-.818c-.013-.037-.021-.08-.04-.113a4.7 4.7 0 0 0-.62-1.03 4.178 4.178 0 0 0-.874-.778c-.03-.018-.066-.03-.097-.053zm15.86-5.797l-8.24-9.975-.957-1.156-1.184 1.189L3.53 30.52c.063.037.101.1.164.14.507.324.979.694 1.365 1.16.384.467.677 1.019.921 1.606.033.07.085.125.115.197l10.589-3.321zm15.985-16.14c-.877-2.406-2.11-4.588-3.684-6.49a19.636 19.636 0 0 0-5.515-4.645L9.781 16.849l2.387 2.893L24.733 7.056a.712.712 0 0 1 1.07.052c.13.16.197.363.197.56 0 .23-.083.454-.247.623L13.19 20.973l1.883 2.285.49.597L28.133 11.17a.706.706 0 0 1 1.066.053c.135.16.197.362.197.559a.89.89 0 0 1-.243.622L16.584 25.088l2.393 2.896z"/></g></g></svg>