<svg xmlns="http://www.w3.org/2000/svg" width="39" height="33" viewBox="0 0 39 33"><defs><linearGradient id="z1nda" x1="15.86" x2="-15.86" y1="-13.46" y2="19.52" gradientUnits="userSpaceOnUse"><stop offset="0" stop-color="#fff"/><stop offset="1" stop-color="#fff"/></linearGradient></defs><g><g><path fill="url(#z1nda)" d="M38.75 10.492a.734.734 0 0 1-.161.434L19.907 32.758c-.016.02-.044.012-.062.031-.048.046-.089.088-.15.12-.012.008-.015.03-.033.036a.71.71 0 0 1-.282.06.707.707 0 0 1-.28-.06c-.018-.006-.02-.028-.033-.034-.061-.034-.102-.076-.153-.122-.015-.02-.043-.011-.059-.03L.173 10.925a.73.73 0 0 1-.158-.434c0-.017-.015-.028-.015-.042 0-.032.025-.047.028-.079.01-.068-.003-.139.025-.205L4.04.47a.704.704 0 0 1 .647-.44h29.395c.283 0 .537.175.647.44l3.983 9.696c.028.066.015.137.023.205.005.032.03.047.03.079 0 .014-.015.025-.015.042zM14.62 1.473l-3.438 8.256h16.401l-3.436-8.256zm-3.428 9.698l8.188 19.307 8.193-19.307zm-8.942 0l14.691 17.17-7.282-17.17zm19.57 17.168L36.513 11.17h-7.407zM33.616 1.473h-7.943l3.436 8.256h7.9zM1.756 9.729H9.66l3.44-8.256h-7.95z"/><path fill="#ff3b4a" d="M38.75 10.492a.734.734 0 0 1-.161.434L19.907 32.758c-.016.02-.044.012-.062.031-.048.046-.089.088-.15.12-.012.008-.015.03-.033.036a.71.71 0 0 1-.282.06.707.707 0 0 1-.28-.06c-.018-.006-.02-.028-.033-.034-.061-.034-.102-.076-.153-.122-.015-.02-.043-.011-.059-.03L.173 10.925a.73.73 0 0 1-.158-.434c0-.017-.015-.028-.015-.042 0-.032.025-.047.028-.079.01-.068-.003-.139.025-.205L4.04.47a.704.704 0 0 1 .647-.44h29.395c.283 0 .537.175.647.44l3.983 9.696c.028.066.015.137.023.205.005.032.03.047.03.079 0 .014-.015.025-.015.042zM14.62 1.473l-3.438 8.256h16.401l-3.436-8.256zm-3.428 9.698l8.188 19.307 8.193-19.307zm-8.942 0l14.691 17.17-7.282-17.17zm19.57 17.168L36.513 11.17h-7.407zM33.616 1.473h-7.943l3.436 8.256h7.9zM1.756 9.729H9.66l3.44-8.256h-7.95z"/></g></g></svg>