<svg xmlns="http://www.w3.org/2000/svg" width="40" height="33" viewBox="0 0 40 33"><defs><linearGradient id="ol5ma" x1="15.56" x2="-15.56" y1="-12.91" y2="20.08" gradientUnits="userSpaceOnUse"><stop offset="0" stop-color="#fff"/><stop offset="1" stop-color="#fff"/></linearGradient></defs><g><g><path fill="url(#ol5ma)" d="M39.73 16.45c.002.017.01.03.017.044a.091.091 0 0 1 .017.047.085.085 0 0 1-.016.045.095.095 0 0 0-.018.044v10.34c0 .433-.32.78-.714.78H36.63c-.394 0-.712-.347-.712-.78 0-.43.318-.78.712-.78h1.673v-8.87h-6.442c-.394 0-.713-.349-.713-.779V6.826h-5.73v14.32c0 .428-.318.78-.712.78-.393 0-.714-.352-.714-.78V1.555H1.427V26.19h1.698c.394 0 .715.35.715.78 0 .433-.321.78-.715.78H.715c-.394 0-.715-.347-.715-.78V.779C0 .348.321 0 .715 0h23.992c.394 0 .712.348.712.778v4.488h13.597c.393 0 .714.351.714.782zm-7.156-.69h5.73V6.826h-5.73zm-8.615 11.213c0-3.318 2.47-6.017 5.507-6.017 3.032 0 5.5 2.699 5.5 6.017 0 3.32-2.468 6.02-5.5 6.02-3.037 0-5.507-2.7-5.507-6.02zm1.427 0c0 2.46 1.83 4.46 4.08 4.46 2.245 0 4.073-2 4.073-4.46 0-2.459-1.828-4.458-4.073-4.458-2.25 0-4.08 2-4.08 4.458zm-20.593-.002c0-3.32 2.467-6.019 5.505-6.019 3.034 0 5.505 2.7 5.505 6.019 0 3.32-2.47 6.019-5.505 6.019-3.038 0-5.505-2.698-5.505-6.02zm1.424 0c0 2.46 1.83 4.46 4.08 4.46 2.248 0 4.079-2 4.079-4.46s-1.83-4.457-4.078-4.457c-2.25 0-4.08 1.998-4.08 4.457zm16.077-.781c.394 0 .712.35.712.78 0 .433-.318.78-.712.78h-4.827c-.393 0-.711-.347-.711-.78 0-.43.318-.78.711-.78z"/><path fill="#ff3b4a" d="M39.73 16.45c.002.017.01.03.017.044a.091.091 0 0 1 .017.047.085.085 0 0 1-.016.045.095.095 0 0 0-.018.044v10.34c0 .433-.32.78-.714.78H36.63c-.394 0-.712-.347-.712-.78 0-.43.318-.78.712-.78h1.673v-8.87h-6.442c-.394 0-.713-.349-.713-.779V6.826h-5.73v14.32c0 .428-.318.78-.712.78-.393 0-.714-.352-.714-.78V1.555H1.427V26.19h1.698c.394 0 .715.35.715.78 0 .433-.321.78-.715.78H.715c-.394 0-.715-.347-.715-.78V.779C0 .348.321 0 .715 0h23.992c.394 0 .712.348.712.778v4.488h13.597c.393 0 .714.351.714.782zm-7.156-.69h5.73V6.826h-5.73zm-8.615 11.213c0-3.318 2.47-6.017 5.507-6.017 3.032 0 5.5 2.699 5.5 6.017 0 3.32-2.468 6.02-5.5 6.02-3.037 0-5.507-2.7-5.507-6.02zm1.427 0c0 2.46 1.83 4.46 4.08 4.46 2.245 0 4.073-2 4.073-4.46 0-2.459-1.828-4.458-4.073-4.458-2.25 0-4.08 2-4.08 4.458zm-20.593-.002c0-3.32 2.467-6.019 5.505-6.019 3.034 0 5.505 2.7 5.505 6.019 0 3.32-2.47 6.019-5.505 6.019-3.038 0-5.505-2.698-5.505-6.02zm1.424 0c0 2.46 1.83 4.46 4.08 4.46 2.248 0 4.079-2 4.079-4.46s-1.83-4.457-4.078-4.457c-2.25 0-4.08 1.998-4.08 4.457zm16.077-.781c.394 0 .712.35.712.78 0 .433-.318.78-.712.78h-4.827c-.393 0-.711-.347-.711-.78 0-.43.318-.78.711-.78z"/></g></g></svg>